<svg
    xmlns="http://www.w3.org/2000/svg" width="296.71" height="148" viewBox="0 0 296.71 148">
    <title>nk-logo</title>
    <polygon points="0.5 70.5 0.5 147.5 77.5 147.5 0.5 70.5" fill="currentColor"/>
    <polygon points="109.21 146.5 1 38.29 1 1 39.29 1 147 108.71 147 146.5 109.21 146.5" fill="currentColor"/>
    <path d="M587.09,284.5,694.5,391.91V429H657.41L549.5,321.09V284.5h37.59m.41-1h-39v38L657,430h38.5V391.5l-108-108Z" transform="translate(-548 -283)"/>
    <path d="M695.5,283.5h-74l147,147h74l-73-73,74-74h-76l-36,36Z" transform="translate(-548 -283)" fill="currentColor"/>
</svg>